# xmcd
# 
# Track frame offsets:
#     150
#     3355
#     28973
#     60758
#     83138
#     120233
#     128025
#     160203
#     182520
# 
# Disc length: 2969
# 
# Revision: 3
# Processed by: cddbd v1.5.2PL0 Copyright (c) Steve Scherf et al.
# Submitted via: fre:ac v1.1beta1pre5
# 
DISCID=5f0b9709
DTITLE=Bill Evans - The Complete Live At The Village Vanguard 1961
DYEAR=1961
DGENRE=Piano Jazz
TTITLE0=A1 Spoken Introduction
TTITLE1=A2 Gloria's Step (Take 1-Interrupted)
TTITLE2=A3 Alice In Wonderland (Take 1)
TTITLE3=B1 My Foolish Heart
TTITLE4=B2 All Of You (Take 1)
TTITLE5=B3 Announcement And Intermission
TTITLE6=C1 My Romance (Take 1)
TTITLE7=C2 Some Other Time
TTITLE8=C3 Solar
EXTD=
EXTT0=
EXTT1=
EXTT2=
EXTT3=
EXTT4=
EXTT5=
EXTT6=
EXTT7=
EXTT8=
PLAYORDER=
